<svg width="393" height="852" viewBox="0 0 393 852" fill="none" xmlns="http://www.w3.org/2000/svg">
<rect width="393" height="852" fill="url(#paint0_linear_107_2104)"/>
<path d="M193 234.988H169V124.977H193V234.988Z" fill="#02F5D0"/>
<path d="M169 234.988L193 211.17V258.807L169 234.988Z" fill="#02F5D0"/>
<path d="M225 266.157H201V124.976H225V266.157Z" fill="#02F5D0"/>
<path d="M201 266.157L225 242.339V289.976L201 266.157Z" fill="#02F5D0"/>
<path d="M201 655.988H225V766H201V655.988Z" fill="#02F5D0"/>
<path d="M225 655.988L201 679.807V632.17L225 655.988Z" fill="#02F5D0"/>
<path d="M169 624.818H193V766H169V624.818Z" fill="#02F5D0"/>
<path d="M193 624.818L169 648.636V601L193 624.818Z" fill="#02F5D0"/>
<mask id="path-5-outside-1_107_2104" maskUnits="userSpaceOnUse" x="117" y="339" width="161" height="115" fill="black">
<rect fill="white" x="117" y="339" width="161" height="115"/>
<path d="M163.323 449H132.803L177.743 374.1C178.49 372.887 178.957 371.86 179.143 371.02C179.423 370.087 179.563 369.247 179.563 368.5C179.563 367.473 179.19 366.727 178.443 366.26C177.697 365.7 176.577 365.42 175.083 365.42H122.163V344H183.903C192.583 344 198.93 345.727 202.943 349.18C206.957 352.633 208.963 357.347 208.963 363.32C208.963 366.773 208.217 370.273 206.723 373.82C205.323 377.367 203.55 381.007 201.403 384.74L163.323 449ZM227.1 449H196.58L241.52 374.1C242.267 372.887 242.733 371.86 242.92 371.02C243.2 370.087 243.34 369.247 243.34 368.5C243.34 367.473 242.967 366.727 242.22 366.26C241.473 365.7 240.353 365.42 238.86 365.42H185.94V344H247.68C256.36 344 262.707 345.727 266.72 349.18C270.733 352.633 272.74 357.347 272.74 363.32C272.74 366.773 271.993 370.273 270.5 373.82C269.1 377.367 267.327 381.007 265.18 384.74L227.1 449Z"/>
</mask>
<path d="M163.323 449H132.803L177.743 374.1C178.49 372.887 178.957 371.86 179.143 371.02C179.423 370.087 179.563 369.247 179.563 368.5C179.563 367.473 179.19 366.727 178.443 366.26C177.697 365.7 176.577 365.42 175.083 365.42H122.163V344H183.903C192.583 344 198.93 345.727 202.943 349.18C206.957 352.633 208.963 357.347 208.963 363.32C208.963 366.773 208.217 370.273 206.723 373.82C205.323 377.367 203.55 381.007 201.403 384.74L163.323 449ZM227.1 449H196.58L241.52 374.1C242.267 372.887 242.733 371.86 242.92 371.02C243.2 370.087 243.34 369.247 243.34 368.5C243.34 367.473 242.967 366.727 242.22 366.26C241.473 365.7 240.353 365.42 238.86 365.42H185.94V344H247.68C256.36 344 262.707 345.727 266.72 349.18C270.733 352.633 272.74 357.347 272.74 363.32C272.74 366.773 271.993 370.273 270.5 373.82C269.1 377.367 267.327 381.007 265.18 384.74L227.1 449Z" fill="#191922"/>
<path d="M163.323 449V454H166.172L167.625 451.549L163.323 449ZM132.803 449L128.516 446.428L123.972 454H132.803V449ZM177.743 374.1L173.485 371.48L173.47 371.503L173.456 371.528L177.743 374.1ZM179.143 371.02L174.354 369.583L174.302 369.758L174.263 369.935L179.143 371.02ZM178.443 366.26L175.443 370.26L175.613 370.387L175.793 370.5L178.443 366.26ZM122.163 365.42H117.163V370.42H122.163V365.42ZM122.163 344V339H117.163V344H122.163ZM206.723 373.82L202.115 371.88L202.093 371.932L202.073 371.984L206.723 373.82ZM201.403 384.74L205.705 387.289L205.722 387.261L205.738 387.232L201.403 384.74ZM163.323 449V444H132.803V449V454H163.323V449ZM132.803 449L137.091 451.572L182.031 376.672L177.743 374.1L173.456 371.528L128.516 446.428L132.803 449ZM177.743 374.1L182.002 376.72C182.875 375.302 183.664 373.727 184.024 372.105L179.143 371.02L174.263 369.935C174.263 369.931 174.233 370.062 174.102 370.351C173.973 370.633 173.776 371.007 173.485 371.48L177.743 374.1ZM179.143 371.02L183.933 372.457C184.312 371.191 184.563 369.855 184.563 368.5H179.563H174.563C174.563 368.638 174.535 368.982 174.354 369.583L179.143 371.02ZM179.563 368.5H184.563C184.563 366.085 183.566 363.565 181.093 362.02L178.443 366.26L175.793 370.5C175.431 370.274 175.059 369.901 174.811 369.406C174.58 368.944 174.563 368.588 174.563 368.5H179.563ZM178.443 366.26L181.443 362.26C179.45 360.765 177.058 360.42 175.083 360.42V365.42V370.42C175.302 370.42 175.473 370.43 175.601 370.444C175.729 370.458 175.802 370.474 175.831 370.481C175.893 370.496 175.713 370.462 175.443 370.26L178.443 366.26ZM175.083 365.42V360.42H122.163V365.42V370.42H175.083V365.42ZM122.163 365.42H127.163V344H122.163H117.163V365.42H122.163ZM122.163 344V349H183.903V344V339H122.163V344ZM183.903 344V349C192.1 349 197 350.662 199.682 352.97L202.943 349.18L206.205 345.39C200.86 340.791 193.067 339 183.903 339V344ZM202.943 349.18L199.682 352.97C202.443 355.345 203.963 358.594 203.963 363.32H208.963H213.963C213.963 356.099 211.471 349.921 206.205 345.39L202.943 349.18ZM208.963 363.32H203.963C203.963 366.035 203.38 368.877 202.115 371.88L206.723 373.82L211.332 375.76C213.054 371.67 213.963 367.512 213.963 363.32H208.963ZM206.723 373.82L202.073 371.984C200.773 375.278 199.11 378.699 197.069 382.248L201.403 384.74L205.738 387.232C207.991 383.315 209.874 379.456 211.374 375.656L206.723 373.82ZM201.403 384.74L197.102 382.191L159.022 446.451L163.323 449L167.625 451.549L205.705 387.289L201.403 384.74ZM227.1 449V454H229.949L231.401 451.549L227.1 449ZM196.58 449L192.293 446.428L187.749 454H196.58V449ZM241.52 374.1L237.262 371.48L237.247 371.503L237.233 371.528L241.52 374.1ZM242.92 371.02L238.131 369.583L238.079 369.758L238.039 369.935L242.92 371.02ZM242.22 366.26L239.22 370.26L239.39 370.387L239.57 370.5L242.22 366.26ZM185.94 365.42H180.94V370.42H185.94V365.42ZM185.94 344V339H180.94V344H185.94ZM270.5 373.82L265.892 371.88L265.87 371.932L265.849 371.984L270.5 373.82ZM265.18 384.74L269.481 387.289L269.498 387.261L269.515 387.232L265.18 384.74ZM227.1 449V444H196.58V449V454H227.1V449ZM196.58 449L200.867 451.572L245.807 376.672L241.52 374.1L237.233 371.528L192.293 446.428L196.58 449ZM241.52 374.1L245.778 376.72C246.652 375.302 247.44 373.727 247.801 372.105L242.92 371.02L238.039 369.935C238.04 369.931 238.009 370.062 237.878 370.351C237.75 370.633 237.553 371.007 237.262 371.48L241.52 374.1ZM242.92 371.02L247.709 372.457C248.089 371.191 248.34 369.855 248.34 368.5H243.34H238.34C238.34 368.638 238.311 368.982 238.131 369.583L242.92 371.02ZM243.34 368.5H248.34C248.34 366.085 247.342 363.565 244.87 362.02L242.22 366.26L239.57 370.5C239.208 370.274 238.836 369.901 238.588 369.406C238.357 368.944 238.34 368.588 238.34 368.5H243.34ZM242.22 366.26L245.22 362.26C243.226 360.765 240.834 360.42 238.86 360.42V365.42V370.42C239.079 370.42 239.25 370.43 239.377 370.444C239.506 370.458 239.579 370.474 239.607 370.481C239.669 370.496 239.49 370.462 239.22 370.26L242.22 366.26ZM238.86 365.42V360.42H185.94V365.42V370.42H238.86V365.42ZM185.94 365.42H190.94V344H185.94H180.94V365.42H185.94ZM185.94 344V349H247.68V344V339H185.94V344ZM247.68 344V349C255.877 349 260.777 350.662 263.459 352.97L266.72 349.18L269.981 345.39C264.636 340.791 256.843 339 247.68 339V344ZM266.72 349.18L263.459 352.97C266.219 355.345 267.74 358.594 267.74 363.32H272.74H277.74C277.74 356.099 275.247 349.921 269.981 345.39L266.72 349.18ZM272.74 363.32H267.74C267.74 366.035 267.156 368.877 265.892 371.88L270.5 373.82L275.108 375.76C276.831 371.67 277.74 367.512 277.74 363.32H272.74ZM270.5 373.82L265.849 371.984C264.549 375.278 262.886 378.699 260.845 382.248L265.18 384.74L269.515 387.232C271.767 383.315 273.651 379.456 275.151 375.656L270.5 373.82ZM265.18 384.74L260.879 382.191L222.799 446.451L227.1 449L231.401 451.549L269.481 387.289L265.18 384.74Z" fill="#02F5D0" mask="url(#path-5-outside-1_107_2104)"/>
<defs>
<linearGradient id="paint0_linear_107_2104" x1="196.5" y1="0" x2="196.5" y2="852" gradientUnits="userSpaceOnUse">
<stop offset="0.596154" stop-color="#191922"/>
<stop offset="1" stop-color="#02F5D0"/>
</linearGradient>
</defs>
</svg>
