<svg width="25" height="25" viewBox="0 0 25 25" fill="none" xmlns="http://www.w3.org/2000/svg">
<path d="M13.75 3.75C13.75 3.05859 13.1914 2.5 12.5 2.5C11.8086 2.5 11.25 3.05859 11.25 3.75V11.9805L9.63281 10.3633C9.14453 9.875 8.35156 9.875 7.86328 10.3633C7.375 10.8516 7.375 11.6445 7.86328 12.1328L11.6133 15.8828C12.1016 16.3711 12.8945 16.3711 13.3828 15.8828L17.1328 12.1328C17.6211 11.6445 17.6211 10.8516 17.1328 10.3633C16.6445 9.875 15.8516 9.875 15.3633 10.3633L13.75 11.9805V3.75ZM6.25 15C4.87109 15 3.75 16.1211 3.75 17.5V18.75C3.75 20.1289 4.87109 21.25 6.25 21.25H18.75C20.1289 21.25 21.25 20.1289 21.25 18.75V17.5C21.25 16.1211 20.1289 15 18.75 15H16.918L14.707 17.2109C13.4883 18.4297 11.5078 18.4297 10.2891 17.2109L8.08203 15H6.25ZM18.125 17.1875C18.6445 17.1875 19.0625 17.6055 19.0625 18.125C19.0625 18.6445 18.6445 19.0625 18.125 19.0625C17.6055 19.0625 17.1875 18.6445 17.1875 18.125C17.1875 17.6055 17.6055 17.1875 18.125 17.1875Z" fill="#02F5D0"/>
</svg>
