<svg width="30" height="30" viewBox="0 0 30 30" fill="none" xmlns="http://www.w3.org/2000/svg">
<path d="M18.4953 16.125H9.54687C9.68281 19.1484 10.3531 21.9328 11.3047 23.9719C11.8391 25.1203 12.4156 25.9312 12.95 26.4281C13.475 26.9203 13.8359 27 14.0234 27C14.2109 27 14.5719 26.9203 15.0969 26.4281C15.6312 25.9312 16.2078 25.1156 16.7422 23.9719C17.6937 21.9328 18.3641 19.1484 18.5 16.125H18.4953ZM9.54219 13.875H18.4906C18.3594 10.8516 17.6891 8.06719 16.7375 6.02813C16.2031 4.88438 15.6266 4.06875 15.0922 3.57187C14.5672 3.07969 14.2062 3 14.0187 3C13.8312 3 13.4703 3.07969 12.9453 3.57187C12.4109 4.06875 11.8344 4.88438 11.3 6.02813C10.3484 8.06719 9.67812 10.8516 9.54219 13.875ZM7.29219 13.875C7.45625 9.8625 8.49219 6.13594 10.0062 3.68906C5.68906 5.21719 2.51094 9.15 2.07031 13.875H7.29219ZM2.07031 16.125C2.51094 20.85 5.68906 24.7828 10.0062 26.3109C8.49219 23.8641 7.45625 20.1375 7.29219 16.125H2.07031ZM20.7453 16.125C20.5812 20.1375 19.5453 23.8641 18.0312 26.3109C22.3484 24.7781 25.5266 20.85 25.9672 16.125H20.7453ZM25.9672 13.875C25.5266 9.15 22.3484 5.21719 18.0312 3.68906C19.5453 6.13594 20.5812 9.8625 20.7453 13.875H25.9672Z" fill="white"/>
</svg>
