<svg width="25" height="25" viewBox="0 0 25 25" fill="none" xmlns="http://www.w3.org/2000/svg">
<path d="M13.3515 2.83594C12.8711 2.39062 12.1289 2.39062 11.6523 2.83594L2.90231 10.9609C2.52731 11.3125 2.40231 11.8555 2.58981 12.332C2.77731 12.8086 3.23434 13.125 3.74996 13.125H4.37496V20C4.37496 21.3789 5.49606 22.5 6.87496 22.5H18.125C19.5039 22.5 20.625 21.3789 20.625 20V13.125H21.25C21.7656 13.125 22.2265 12.8086 22.414 12.332C22.6015 11.8555 22.4765 11.3086 22.1015 10.9609L13.3515 2.83594ZM11.875 15H13.125C14.1601 15 15 15.8398 15 16.875V20.625H9.99996V16.875C9.99996 15.8398 10.8398 15 11.875 15Z" fill="#444D56"/>
</svg>
