<svg width="20" height="15" viewBox="0 0 20 15" fill="none" xmlns="http://www.w3.org/2000/svg">
<g clip-path="url(#clip0_1_1203)">
<mask id="mask0_1_1203" style="mask-type:luminance" maskUnits="userSpaceOnUse" x="0" y="-1" width="20" height="16">
<path d="M0 -0.000244141H20.0001V14.9998H0V-0.000244141Z" fill="white"/>
</mask>
<g mask="url(#mask0_1_1203)">
<path fill-rule="evenodd" clip-rule="evenodd" d="M20.6959 15H-0.695801V0H20.6959V15Z" fill="white"/>
<path fill-rule="evenodd" clip-rule="evenodd" d="M10.186 7.51339C10.186 9.33381 8.71021 10.8095 6.88985 10.8095C5.06943 10.8095 3.59375 9.33378 3.59375 7.51339C3.59375 5.69297 5.06946 4.21729 6.88985 4.21729C8.71027 4.21729 10.186 5.69303 10.186 7.51339Z" fill="white"/>
<path fill-rule="evenodd" clip-rule="evenodd" d="M14.321 7.70471C14.321 10.0801 12.4157 12.0056 10.0653 12.0056C7.71489 12.0056 5.80957 10.0801 5.80957 7.70471C5.80957 5.32932 7.71486 3.40381 10.0653 3.40381C12.4157 3.40381 14.321 5.32935 14.321 7.70471Z" fill="#C70000"/>
<path fill-rule="evenodd" clip-rule="evenodd" d="M1.35913 3.71714L3.81011 0.88208L4.3908 1.38408L1.93982 4.21917L1.35913 3.71714ZM2.16184 4.41109L4.61281 1.57604L5.19348 2.07804L2.7425 4.9131L2.16184 4.41109Z" fill="black"/>
<path fill-rule="evenodd" clip-rule="evenodd" d="M1.35913 3.71714L3.81011 0.88208L4.3908 1.38408L1.93982 4.21917L1.35913 3.71714Z" fill="black"/>
<path fill-rule="evenodd" clip-rule="evenodd" d="M1.35913 3.71714L3.81011 0.88208L4.3908 1.38408L1.93982 4.21917L1.35913 3.71714ZM2.98171 5.11987L5.43269 2.28481L6.01335 2.78685L3.56237 5.6219L2.98171 5.11987Z" fill="black"/>
<path fill-rule="evenodd" clip-rule="evenodd" d="M1.35913 3.71714L3.81011 0.88208L4.3908 1.38408L1.93982 4.21917L1.35913 3.71714Z" fill="black"/>
<path fill-rule="evenodd" clip-rule="evenodd" d="M1.35913 3.7171L3.81011 0.882041L4.3908 1.38404L1.93982 4.21913L1.35913 3.7171ZM16.2663 0.881104L18.698 3.73271L18.1139 4.23076L15.6822 1.37918L16.2663 0.881104ZM14.6342 2.27279L17.0659 5.1244L16.4819 5.62245L14.0502 2.77087L14.6342 2.27279Z" fill="black"/>
<path fill-rule="evenodd" clip-rule="evenodd" d="M15.0398 3.91496L17.3426 1.92822L17.7715 2.42489L15.3107 4.63736L15.0398 3.91493V3.91496Z" fill="white"/>
<path fill-rule="evenodd" clip-rule="evenodd" d="M17.8722 10.9118L15.5162 13.7193L14.9386 13.2388L17.2946 10.4314L17.8722 10.9118ZM15.4588 1.56982L17.8905 4.42141L17.3065 4.91948L14.8748 2.0679L15.4588 1.56982ZM18.6704 11.5758L16.3145 14.3833L15.7369 13.9028L18.0928 11.0953L18.6704 11.5758ZM17.0566 10.2334L14.7006 13.0409L14.123 12.5605L16.479 9.75297L17.0566 10.2334Z" fill="black"/>
<path fill-rule="evenodd" clip-rule="evenodd" d="M5.87129 6.94682C6.00582 8.03004 6.20225 9.2371 7.8693 9.36249C8.49415 9.39994 9.70965 9.21384 10.127 7.51122C10.6745 5.87561 12.3235 5.40536 13.4457 6.29209C14.082 6.70711 14.258 7.36629 14.3036 7.86115C14.2527 9.4503 13.3405 10.826 12.1701 11.4395C10.8245 12.2393 8.96035 12.256 7.32734 11.0443C6.5914 10.3537 5.56311 9.0808 5.87129 6.94682Z" fill="#3D5897"/>
<path fill-rule="evenodd" clip-rule="evenodd" d="M15.5778 10.8701L17.8844 12.8524L17.457 13.3503L14.9036 11.2453L15.5778 10.8701Z" fill="white"/>
<path fill-rule="evenodd" clip-rule="evenodd" d="M2.75157 10.4775L5.18327 13.3292L4.59918 13.8272L2.16748 10.9756L2.75157 10.4775Z" fill="black"/>
<path fill-rule="evenodd" clip-rule="evenodd" d="M2.33276 12.8229L4.63556 10.8362L5.06449 11.3329L2.60367 13.5453L2.33276 12.8229V12.8229Z" fill="white"/>
<path fill-rule="evenodd" clip-rule="evenodd" d="M3.55909 9.78906L5.99082 12.6406L5.40673 13.1387L2.97503 10.2871L3.55909 9.78906ZM1.92711 11.1808L4.35881 14.0323L3.77475 14.5304L1.34302 11.6788L1.92711 11.1808Z" fill="black"/>
</g>
</g>
<defs>
<clipPath id="clip0_1_1203">
<rect width="20" height="15" fill="white"/>
</clipPath>
</defs>
</svg>
