<svg width="24" height="22" viewBox="0 0 24 22" fill="none" xmlns="http://www.w3.org/2000/svg">
<path d="M17.7607 1.5C20.6538 1.5 23 3.84623 23 6.73926V6.86133C22.9998 9.12318 21.5603 11.7317 19.5215 14.208C17.5172 16.6423 15.0845 18.7686 13.416 20.042C13.0222 20.3405 12.5261 20.5 12 20.5C11.4672 20.5 10.9718 20.3421 10.5908 20.0479L10.5859 20.0439C8.91735 18.7708 6.48371 16.6434 4.47852 14.208C2.43971 11.7317 1.00017 9.12318 1 6.86133V6.73926C1 3.84623 3.34623 1.5 6.23926 1.5C7.92056 1.50006 9.503 2.30802 10.4863 3.66895L10.4873 3.66992L11.1904 4.63965L12 5.75781L12.8096 4.63965L13.5127 3.66992L13.5137 3.66895C14.497 2.30802 16.0794 1.50006 17.7607 1.5Z" fill="#2C2B30" stroke="#02F5D0" stroke-width="2"/>
</svg>
