<svg width="30" height="30" viewBox="0 0 30 30" fill="none" xmlns="http://www.w3.org/2000/svg">
<path d="M26.6719 15.7969C27.1125 15.3562 27.1125 14.6438 26.6719 14.2078L19.9219 7.45312C19.5984 7.12969 19.1156 7.03594 18.6937 7.20938C18.2719 7.38281 18 7.79531 18 8.25V12H12.75C11.5078 12 10.5 13.0078 10.5 14.25V15.75C10.5 16.9922 11.5078 18 12.75 18H18V21.75C18 22.2047 18.2719 22.6172 18.6937 22.7906C19.1156 22.9641 19.5984 22.8703 19.9219 22.5469L26.6719 15.7969ZM10.5 7.5C11.3297 7.5 12 6.82969 12 6C12 5.17031 11.3297 4.5 10.5 4.5H7.5C5.01562 4.5 3 6.51562 3 9V21C3 23.4844 5.01562 25.5 7.5 25.5H10.5C11.3297 25.5 12 24.8297 12 24C12 23.1703 11.3297 22.5 10.5 22.5H7.5C6.67031 22.5 6 21.8297 6 21V9C6 8.17031 6.67031 7.5 7.5 7.5H10.5Z" fill="white"/>
</svg>
