<svg width="25" height="25" viewBox="0 0 25 25" fill="none" xmlns="http://www.w3.org/2000/svg">
<path d="M9.08984 2.73047L8.75 3.75H5C4.30859 3.75 3.75 4.30859 3.75 5C3.75 5.69141 4.30859 6.25 5 6.25H20C20.6914 6.25 21.25 5.69141 21.25 5C21.25 4.30859 20.6914 3.75 20 3.75H16.25L15.9102 2.73047C15.7383 2.21875 15.2617 1.875 14.7227 1.875H10.2773C9.73828 1.875 9.26172 2.21875 9.08984 2.73047ZM20 8.125H5L5.82422 20.7461C5.88672 21.7344 6.70703 22.5 7.69531 22.5H17.3047C18.293 22.5 19.1133 21.7344 19.1758 20.7461L20 8.125Z" fill="#02F5D0"/>
</svg>
