<svg width="22" height="20" viewBox="0 0 22 20" fill="none" xmlns="http://www.w3.org/2000/svg">
<path d="M7.22266 16.75H12.0273L14.5781 14.1992L7.80078 7.42188L2.85156 12.3711L7.22656 16.7461L7.22266 16.75ZM9 19.25H7.22266C6.55859 19.25 5.92188 18.9883 5.45312 18.5195L0.914062 13.9766C0.488281 13.5508 0.25 12.9766 0.25 12.375C0.25 11.7734 0.488281 11.1992 0.914062 10.7734L10.5234 1.16406C10.9492 0.738281 11.5234 0.5 12.125 0.5C12.7266 0.5 13.3008 0.738281 13.7266 1.16406L20.8359 8.27344C21.2617 8.69922 21.5 9.27344 21.5 9.875C21.5 10.4766 21.2617 11.0508 20.8359 11.4766L15.5625 16.75H20.25C20.9414 16.75 21.5 17.3086 21.5 18C21.5 18.6914 20.9414 19.25 20.25 19.25H9Z" fill="#02F5D0"/>
</svg>
