<svg width="25" height="25" viewBox="0 0 25 25" fill="none" xmlns="http://www.w3.org/2000/svg">
<path d="M2.85059 1.52734C2.4834 1.16016 1.88965 1.16016 1.52637 1.52734C1.16309 1.89453 1.15918 2.48828 1.52246 2.85547L22.1475 23.4805C22.5146 23.8477 23.1084 23.8477 23.4717 23.4805C23.835 23.1133 23.8389 22.5195 23.4717 22.1562L19.7061 18.3906C19.8115 18.2969 19.917 18.2031 20.0186 18.1094C21.8467 16.4102 23.0693 14.3828 23.6514 12.9883C23.7803 12.6797 23.7803 12.3359 23.6514 12.0273C23.0693 10.6328 21.8467 8.60156 20.0186 6.90625C18.1787 5.19922 15.6514 3.75781 12.4951 3.75781C10.2764 3.75781 8.37012 4.46875 6.79199 5.48438L2.85059 1.52734ZM8.15918 6.83984C9.41309 6.10156 10.8623 5.625 12.499 5.625C15.0459 5.625 17.1396 6.78125 18.7451 8.26953C20.249 9.66406 21.2881 11.3281 21.8154 12.5C21.2842 13.6719 20.2451 15.332 18.7451 16.7305C18.624 16.8398 18.5029 16.9492 18.3779 17.0586L16.6318 15.3125C17.1787 14.5117 17.499 13.543 17.499 12.5C17.499 9.73828 15.2607 7.5 12.499 7.5C11.4561 7.5 10.4873 7.82031 9.68652 8.36719L8.15918 6.83984ZM15.2686 13.9492L11.0498 9.73047C11.4834 9.50391 11.9756 9.375 12.499 9.375C14.2256 9.375 15.624 10.7734 15.624 12.5C15.624 13.0234 15.4951 13.5156 15.2686 13.9492ZM5.28809 9.26562L3.95996 7.9375C2.68652 9.375 1.81152 10.8984 1.34668 12.0195C1.21777 12.3281 1.21777 12.6719 1.34668 12.9805C1.92871 14.375 3.15137 16.4062 4.97949 18.1016C6.81934 19.8086 9.34668 21.25 12.5029 21.25C13.96 21.25 15.2842 20.9414 16.4678 20.4453L15.0068 18.9844C14.2256 19.2344 13.3896 19.375 12.499 19.375C9.95215 19.375 7.8584 18.2188 6.25293 16.7305C4.74902 15.3359 3.70996 13.6719 3.18262 12.5C3.58887 11.5977 4.2998 10.4062 5.29199 9.26562H5.28809Z" fill="white"/>
</svg>
