<svg width="25" height="25" viewBox="0 0 25 25" fill="none" xmlns="http://www.w3.org/2000/svg">
<path d="M12.499 5.625C9.95215 5.625 7.8584 6.78125 6.25293 8.26953C4.74902 9.66797 3.70996 11.3281 3.17871 12.5C3.70996 13.6719 4.74902 15.332 6.25293 16.7305C7.8584 18.2187 9.95215 19.375 12.499 19.375C15.0459 19.375 17.1397 18.2187 18.7451 16.7305C20.249 15.332 21.2881 13.6719 21.8193 12.5C21.2881 11.3281 20.249 9.66797 18.7451 8.26953C17.1397 6.78125 15.0459 5.625 12.499 5.625ZM4.97559 6.89844C6.81543 5.1875 9.34277 3.75 12.499 3.75C15.6553 3.75 18.1826 5.1875 20.0225 6.89844C21.8506 8.59766 23.0732 10.625 23.6553 12.0195C23.7842 12.3281 23.7842 12.6719 23.6553 12.9805C23.0732 14.375 21.8506 16.4062 20.0225 18.1016C18.1826 19.8086 15.6553 21.25 12.499 21.25C9.34277 21.25 6.81543 19.8125 4.97559 18.1016C3.14746 16.4023 1.9248 14.375 1.34277 12.9805C1.21387 12.6719 1.21387 12.3281 1.34277 12.0195C1.9248 10.625 3.14746 8.59375 4.97559 6.89844ZM12.499 15.625C14.2256 15.625 15.624 14.2266 15.624 12.5C15.624 11.3438 14.9951 10.332 14.0615 9.79297C14.0068 12.125 12.124 14.0078 9.79199 14.0625C10.3311 14.9961 11.3428 15.625 12.499 15.625ZM9.38965 12.1719C9.4873 12.1836 9.58496 12.1875 9.68652 12.1875C11.0654 12.1875 12.1865 11.0664 12.1865 9.6875C12.1865 9.58594 12.1787 9.48828 12.1709 9.39062C10.71 9.54297 9.5459 10.707 9.39356 12.168L9.38965 12.1719ZM11.1709 7.67969C11.5928 7.5625 12.0381 7.50391 12.4951 7.50391C12.8389 7.50391 13.1787 7.53906 13.5029 7.60547C13.5147 7.60938 13.5225 7.60937 13.5342 7.61328C15.7959 8.08984 17.4951 10.1016 17.4951 12.5039C17.4951 15.2656 15.2568 17.5039 12.4951 17.5039C10.0889 17.5039 8.08106 15.8047 7.60449 13.543C7.53418 13.207 7.49512 12.8594 7.49512 12.5039C7.49512 12.0742 7.54981 11.6523 7.65137 11.2539C7.65918 11.2266 7.66309 11.2031 7.6709 11.1797C8.13574 9.48438 9.47168 8.14844 11.167 7.68359L11.1709 7.67969Z" fill="white"/>
</svg>
