<svg width="276" height="39" viewBox="0 0 276 39" fill="none" xmlns="http://www.w3.org/2000/svg">
<g filter="url(#filter0_di_42_2122)">
<line x1="7.9" y1="34" x2="7.9" y2="27" stroke="#02F5D0" stroke-width="4.2"/>
<line x1="16.9" y1="34" x2="16.9" y2="24" stroke="#02F5D0" stroke-width="4.2"/>
<line x1="25.9" y1="34" x2="25.9" y2="21" stroke="#02F5D0" stroke-width="4.2"/>
<line x1="34.9" y1="34" x2="34.9" y2="22" stroke="#02F5D0" stroke-width="4.2"/>
<line x1="43.9" y1="34" x2="43.9" y2="20" stroke="#02F5D0" stroke-width="4.2"/>
<line x1="52.9" y1="34" x2="52.9" y2="18" stroke="#02F5D0" stroke-width="4.2"/>
<line x1="61.9" y1="34" x2="61.9" y2="21" stroke="#02F5D0" stroke-width="4.2"/>
<line x1="70.9" y1="34" x2="70.9" y2="19" stroke="#02F5D0" stroke-width="4.2"/>
<line x1="79.9" y1="34" x2="79.9" y2="22" stroke="#02F5D0" stroke-width="4.2"/>
<line x1="88.9" y1="34" x2="88.9" y2="18" stroke="#02F5D0" stroke-width="4.2"/>
<line x1="97.9" y1="34" x2="97.9" y2="20" stroke="#02F5D0" stroke-width="4.2"/>
<line x1="106.9" y1="34" x2="106.9" y2="14" stroke="#02F5D0" stroke-width="4.2"/>
<line x1="115.9" y1="34" x2="115.9" y2="9" stroke="#02F5D0" stroke-width="4.2"/>
<line x1="124.9" y1="34" x2="124.9" y2="6" stroke="#02F5D0" stroke-width="4.2"/>
<line x1="133.9" y1="34" x2="133.9" y2="9" stroke="#02F5D0" stroke-width="4.2"/>
<line x1="142.9" y1="34" x2="142.9" y2="12" stroke="#02F5D0" stroke-width="4.2"/>
<line x1="151.9" y1="34" x2="151.9" y2="14" stroke="#02F5D0" stroke-width="4.2"/>
<line x1="160.9" y1="34" x2="160.9" y2="10" stroke="#02F5D0" stroke-width="4.2"/>
<line x1="169.9" y1="34" x2="169.9" y2="21" stroke="#02F5D0" stroke-width="4.2"/>
<line x1="178.9" y1="34" x2="178.9" y2="14" stroke="#02F5D0" stroke-width="4.2"/>
<line x1="187.9" y1="34" x2="187.9" y2="19" stroke="#02F5D0" stroke-width="4.2"/>
<line x1="196.9" y1="34" x2="196.9" y2="22" stroke="#02F5D0" stroke-width="4.2"/>
<line x1="205.9" y1="34" x2="205.9" y2="24" stroke="#02F5D0" stroke-width="4.2"/>
<line x1="214.9" y1="34" x2="214.9" y2="22" stroke="#02F5D0" stroke-width="4.2"/>
<line x1="223.9" y1="34" x2="223.9" y2="23" stroke="#02F5D0" stroke-width="4.2"/>
<line x1="232.9" y1="34" x2="232.9" y2="20" stroke="#02F5D0" stroke-width="4.2"/>
<line x1="241.9" y1="34" x2="241.9" y2="17" stroke="#02F5D0" stroke-width="4.2"/>
<line x1="250.9" y1="34" x2="250.9" y2="21" stroke="#02F5D0" stroke-width="4.2"/>
<line x1="259.9" y1="34" x2="259.9" y2="26" stroke="#02F5D0" stroke-width="4.2"/>
<line x1="268.9" y1="34" x2="268.9" y2="29" stroke="#02F5D0" stroke-width="4.2"/>
</g>
<defs>
<filter id="filter0_di_42_2122" x="0.799805" y="0" width="275.2" height="39" filterUnits="userSpaceOnUse" color-interpolation-filters="sRGB">
<feFlood flood-opacity="0" result="BackgroundImageFix"/>
<feColorMatrix in="SourceAlpha" type="matrix" values="0 0 0 0 0 0 0 0 0 0 0 0 0 0 0 0 0 0 127 0" result="hardAlpha"/>
<feOffset/>
<feGaussianBlur stdDeviation="2.5"/>
<feComposite in2="hardAlpha" operator="out"/>
<feColorMatrix type="matrix" values="0 0 0 0 0 0 0 0 0 0.631373 0 0 0 0 0.607843 0 0 0 0.7 0"/>
<feBlend mode="normal" in2="BackgroundImageFix" result="effect1_dropShadow_42_2122"/>
<feBlend mode="normal" in="SourceGraphic" in2="effect1_dropShadow_42_2122" result="shape"/>
<feColorMatrix in="SourceAlpha" type="matrix" values="0 0 0 0 0 0 0 0 0 0 0 0 0 0 0 0 0 0 127 0" result="hardAlpha"/>
<feOffset dy="2"/>
<feGaussianBlur stdDeviation="1.5"/>
<feComposite in2="hardAlpha" operator="arithmetic" k2="-1" k3="1"/>
<feColorMatrix type="matrix" values="0 0 0 0 0 0 0 0 0 0.476356 0 0 0 0 0.458604 0 0 0 0.7 0"/>
<feBlend mode="normal" in2="shape" result="effect2_innerShadow_42_2122"/>
</filter>
</defs>
</svg>
