<svg width="21" height="21" viewBox="0 0 21 21" fill="none" xmlns="http://www.w3.org/2000/svg">
<path d="M16.75 8.625C16.75 10.418 16.168 12.0742 15.1875 13.418L20.1328 18.3672C20.6211 18.8555 20.6211 19.6484 20.1328 20.1367C19.6445 20.625 18.8516 20.625 18.3633 20.1367L13.418 15.1875C12.0742 16.168 10.418 16.75 8.625 16.75C4.13672 16.75 0.5 13.1133 0.5 8.625C0.5 4.13672 4.13672 0.5 8.625 0.5C13.1133 0.5 16.75 4.13672 16.75 8.625ZM8.625 14.25C11.7305 14.25 14.25 11.7305 14.25 8.625C14.25 5.51953 11.7305 3 8.625 3C5.51953 3 3 5.51953 3 8.625C3 11.7305 5.51953 14.25 8.625 14.25Z" fill="white"/>
</svg>
