<svg width="20" height="15" viewBox="0 0 20 15" fill="none" xmlns="http://www.w3.org/2000/svg">
<g clip-path="url(#clip0_1_1225)">
<mask id="mask0_1_1225" style="mask-type:luminance" maskUnits="userSpaceOnUse" x="0" y="0" width="20" height="15">
<path d="M0 0H20.0001V15H0V0Z" fill="white"/>
</mask>
<g mask="url(#mask0_1_1225)">
<path fill-rule="evenodd" clip-rule="evenodd" d="M0 0H28.5003V1.15386H0V0ZM0 2.30771H28.5003V3.46157H0V2.30771ZM0 4.61543H28.5003V5.76929H0V4.61543ZM0 6.92314H28.5003V8.077H0V6.92314ZM0 9.23086H28.5003V10.3847H0V9.23086ZM0 11.5386H28.5003V12.6924H0V11.5386ZM0 13.8463H28.5003V15.0001H0V13.8463Z" fill="#BD3D44"/>
<path fill-rule="evenodd" clip-rule="evenodd" d="M0 1.15381H28.5003V2.30767H0V1.15381ZM0 3.46152H28.5003V4.61538H0V3.46152ZM0 5.76924H28.5003V6.9231H0V5.76924ZM0 8.07695H28.5003V9.23081H0V8.07695ZM0 10.3847H28.5003V11.5385H0V10.3847ZM0 12.6924H28.5003V13.8462H0V12.6924Z" fill="white"/>
<path fill-rule="evenodd" clip-rule="evenodd" d="M0 0H11.4V8.07686H0V0Z" fill="#192F5D"/>
<path fill-rule="evenodd" clip-rule="evenodd" d="M0.949892 0.345703L1.0536 0.664922H1.38929L1.1177 0.862236L1.22145 1.18146L0.949863 0.98417L0.67834 1.18146L0.782051 0.862236L0.510498 0.664922H0.846152L0.949892 0.345703ZM2.84988 0.345703L2.95362 0.664922H3.28931L3.01772 0.862236L3.12146 1.18146L2.84988 0.98417L2.57836 1.18146L2.68207 0.862236L2.41052 0.664922H2.74617L2.84988 0.345703ZM4.74996 0.345703L4.85367 0.664922H5.18935L4.91777 0.862236L5.02151 1.18146L4.74996 0.98417L4.47841 1.18146L4.58212 0.862236L4.31057 0.664922H4.64625L4.74996 0.345703ZM6.64992 0.345703L6.75363 0.664922H7.08929L6.81773 0.862236L6.92144 1.18146L6.64992 0.98417L6.37834 1.18146L6.48208 0.862236L6.2105 0.664922H6.54618L6.64992 0.345703ZM8.54997 0.345703L8.65368 0.664922H8.98936L8.71778 0.862236L8.82152 1.18146L8.54994 0.98417L8.27842 1.18146L8.38213 0.862236L8.11058 0.664922H8.44623L8.54997 0.345703ZM10.45 0.345703L10.5537 0.664922H10.8894L10.6178 0.862236L10.7216 1.18146L10.45 0.98417L10.1784 1.18146L10.2822 0.862236L10.0106 0.664922H10.3463L10.45 0.345703ZM1.89993 1.15342L2.00364 1.47264H2.33933L2.06774 1.66992L2.17151 1.98917L1.89993 1.79188L1.62838 1.98917L1.73209 1.66992L1.46054 1.47264H1.79622L1.89993 1.15342ZM3.79989 1.15342L3.9036 1.47264H4.23926L3.9677 1.66992L4.07142 1.98917L3.79989 1.79188L3.52831 1.98917L3.63205 1.66992L3.36047 1.47264H3.69615L3.79989 1.15342ZM5.69994 1.15342L5.80365 1.47264H6.13934L5.86775 1.66992L5.97149 1.98917L5.69991 1.79188L5.42839 1.98917L5.5321 1.66992L5.26055 1.47264H5.5962L5.69994 1.15342ZM7.59999 1.15342L7.7037 1.47264H8.03938L7.7678 1.66992L7.87154 1.98917L7.59999 1.79188L7.32841 1.98917L7.43221 1.66992L7.16062 1.47264H7.49631L7.59999 1.15342ZM9.49995 1.15342L9.60366 1.47264H9.93931L9.66776 1.66992L9.77147 1.98917L9.49995 1.79188L9.22837 1.98917L9.33211 1.66992L9.06053 1.47264H9.39621L9.49995 1.15342ZM0.949892 1.9611L1.0536 2.28032H1.38929L1.1177 2.47764L1.22145 2.79686L0.949863 2.59957L0.67834 2.79686L0.782051 2.47764L0.510498 2.28032H0.846152L0.949892 1.9611ZM2.84988 1.9611L2.95362 2.28032H3.28931L3.01772 2.47764L3.12146 2.79686L2.84988 2.59957L2.57836 2.79686L2.68207 2.47764L2.41052 2.28032H2.74617L2.84988 1.9611ZM4.74996 1.9611L4.85367 2.28032H5.18935L4.91777 2.47764L5.02151 2.79686L4.74996 2.59957L4.47841 2.79686L4.58212 2.47764L4.31057 2.28032H4.64625L4.74996 1.9611ZM6.64992 1.9611L6.75363 2.28032H7.08929L6.81773 2.47764L6.92144 2.79686L6.64992 2.59957L6.37834 2.79686L6.48208 2.47764L6.2105 2.28032H6.54618L6.64992 1.9611ZM8.54997 1.9611L8.65368 2.28032H8.98936L8.71778 2.47764L8.82152 2.79686L8.54994 2.59957L8.27842 2.79686L8.38213 2.47764L8.11058 2.28032H8.44623L8.54997 1.9611ZM10.45 1.9611L10.5537 2.28032H10.8894L10.6178 2.47764L10.7216 2.79686L10.45 2.59957L10.1784 2.79686L10.2822 2.47764L10.0106 2.28032H10.3463L10.45 1.9611ZM1.89993 2.76879L2.00364 3.08804H2.33933L2.06774 3.28532L2.17151 3.60457L1.89993 3.40729L1.62838 3.60457L1.73209 3.28532L1.46054 3.08804H1.79622L1.89993 2.76879ZM3.79989 2.76879L3.9036 3.08804H4.23926L3.9677 3.28532L4.07142 3.60457L3.79989 3.40729L3.52831 3.60457L3.63205 3.28532L3.36047 3.08804H3.69615L3.79989 2.76879ZM5.69994 2.76879L5.80365 3.08804H6.13934L5.86775 3.28532L5.97149 3.60457L5.69991 3.40729L5.42839 3.60457L5.5321 3.28532L5.26055 3.08804H5.5962L5.69994 2.76879ZM7.59999 2.76879L7.7037 3.08804H8.03938L7.7678 3.28532L7.87154 3.60457L7.59999 3.40729L7.32841 3.60457L7.43218 3.28532L7.16059 3.08804H7.49628L7.59999 2.76879ZM9.49995 2.76879L9.60366 3.08804H9.93931L9.66776 3.28532L9.77147 3.60457L9.49995 3.40729L9.22837 3.60457L9.33211 3.28532L9.06053 3.08804H9.39621L9.49995 2.76879ZM0.949892 3.5765L1.0536 3.89572H1.38929L1.1177 4.09304L1.22145 4.41226L0.949863 4.21497L0.67834 4.41226L0.782051 4.09304L0.510498 3.89572H0.846152L0.949892 3.5765ZM2.84988 3.5765L2.95362 3.89572H3.28931L3.01772 4.09304L3.12146 4.41226L2.84988 4.21497L2.57836 4.41226L2.68207 4.09304L2.41052 3.89572H2.74617L2.84988 3.5765ZM4.74996 3.5765L4.85367 3.89572H5.18935L4.91777 4.09304L5.02151 4.41226L4.74996 4.21497L4.47841 4.41226L4.58212 4.09304L4.31057 3.89572H4.64625L4.74996 3.5765ZM6.64992 3.5765L6.75363 3.89572H7.08929L6.81773 4.09304L6.92144 4.41226L6.64992 4.21497L6.37834 4.41226L6.48208 4.09304L6.2105 3.89572H6.54618L6.64992 3.5765ZM8.54997 3.5765L8.65368 3.89572H8.98936L8.71778 4.09304L8.82152 4.41226L8.54994 4.21497L8.27842 4.41226L8.38213 4.09304L8.11058 3.89572H8.44623L8.54997 3.5765ZM10.45 3.5765L10.5537 3.89572H10.8894L10.6178 4.09304L10.7216 4.41226L10.45 4.21497L10.1784 4.41226L10.2822 4.09304L10.0106 3.89572H10.3463L10.45 3.5765ZM1.89993 4.38419L2.00364 4.70344H2.33933L2.06774 4.90072L2.17151 5.21997L1.89993 5.02269L1.62838 5.21997L1.73209 4.90072L1.46054 4.70344H1.79622L1.89993 4.38419ZM3.79989 4.38419L3.9036 4.70344H4.23926L3.9677 4.90072L4.07142 5.21997L3.79989 5.02269L3.52831 5.21997L3.63205 4.90072L3.36047 4.70344H3.69615L3.79989 4.38419ZM5.69994 4.38419L5.80365 4.70344H6.13934L5.86775 4.90072L5.97149 5.21997L5.69991 5.02269L5.42839 5.21997L5.5321 4.90072L5.26055 4.70344H5.5962L5.69994 4.38419ZM7.59999 4.38419L7.7037 4.70344H8.03938L7.7678 4.90072L7.87154 5.21997L7.59999 5.02269L7.32841 5.21997L7.43218 4.90072L7.16059 4.70344H7.49628L7.59999 4.38419ZM9.49995 4.38419L9.60366 4.70344H9.93931L9.66776 4.90072L9.77147 5.21997L9.49995 5.02269L9.22837 5.21997L9.33211 4.90072L9.06053 4.70344H9.39621L9.49995 4.38419Z" fill="white"/>
<path fill-rule="evenodd" clip-rule="evenodd" d="M0.949892 5.19189L1.0536 5.51111H1.38929L1.1177 5.70843L1.22145 6.02765L0.949863 5.83036L0.67834 6.02765L0.782051 5.70843L0.510498 5.51111H0.846152L0.949892 5.19189ZM2.84988 5.19189L2.95362 5.51111H3.28931L3.01772 5.70843L3.12146 6.02765L2.84988 5.83036L2.57836 6.02765L2.68207 5.70843L2.41052 5.51111H2.74617L2.84988 5.19189ZM4.74996 5.19189L4.85367 5.51111H5.18935L4.91777 5.70843L5.02151 6.02765L4.74996 5.83036L4.47841 6.02765L4.58212 5.70843L4.31057 5.51111H4.64625L4.74996 5.19189ZM6.64992 5.19189L6.75363 5.51111H7.08929L6.81773 5.70843L6.92144 6.02765L6.64992 5.83036L6.37834 6.02765L6.48208 5.70843L6.2105 5.51111H6.54618L6.64992 5.19189ZM8.54997 5.19189L8.65368 5.51111H8.98936L8.71778 5.70843L8.82152 6.02765L8.54994 5.83036L8.27842 6.02765L8.38213 5.70843L8.11058 5.51111H8.44623L8.54997 5.19189ZM10.45 5.19189L10.5537 5.51111H10.8894L10.6178 5.70843L10.7216 6.02765L10.45 5.83036L10.1784 6.02765L10.2822 5.70843L10.0106 5.51111H10.3463L10.45 5.19189ZM1.89993 5.99958L2.00364 6.31883H2.33933L2.06774 6.51611L2.17151 6.83536L1.89993 6.63808L1.62838 6.83536L1.73209 6.51611L1.46054 6.31883H1.79622L1.89993 5.99958ZM3.79989 5.99958L3.9036 6.31883H4.23926L3.9677 6.51611L4.07142 6.83536L3.79989 6.63808L3.52831 6.83536L3.63205 6.51611L3.36047 6.31883H3.69615L3.79989 5.99958ZM5.69994 5.99958L5.80365 6.31883H6.13934L5.86775 6.51611L5.97149 6.83536L5.69991 6.63808L5.42839 6.83536L5.5321 6.51611L5.26055 6.31883H5.5962L5.69994 5.99958ZM7.59999 5.99958L7.7037 6.31883H8.03938L7.7678 6.51611L7.87154 6.83536L7.59999 6.63808L7.32841 6.83536L7.43218 6.51611L7.16059 6.31883H7.49628L7.59999 5.99958ZM9.49995 5.99958L9.60366 6.31883H9.93931L9.66776 6.51611L9.77147 6.83536L9.49995 6.63808L9.22837 6.83536L9.33211 6.51611L9.06053 6.31883H9.39621L9.49995 5.99958Z" fill="white"/>
<path fill-rule="evenodd" clip-rule="evenodd" d="M0.949892 6.80737L1.0536 7.12659H1.38929L1.1177 7.32391L1.22145 7.64312L0.949863 7.44584L0.67834 7.64312L0.782051 7.32391L0.510498 7.12659H0.846152L0.949892 6.80737ZM2.84988 6.80737L2.95362 7.12659H3.28931L3.01772 7.32391L3.12146 7.64312L2.84988 7.44584L2.57836 7.64312L2.68207 7.32391L2.41052 7.12659H2.74617L2.84988 6.80737ZM4.74996 6.80737L4.85367 7.12659H5.18935L4.91777 7.32391L5.02151 7.64312L4.74996 7.44584L4.47841 7.64312L4.58212 7.32391L4.31057 7.12659H4.64625L4.74996 6.80737ZM6.64992 6.80737L6.75363 7.12659H7.08929L6.81773 7.32391L6.92144 7.64312L6.64992 7.44584L6.37834 7.64312L6.48208 7.32391L6.2105 7.12659H6.54618L6.64992 6.80737ZM8.54997 6.80737L8.65368 7.12659H8.98936L8.71778 7.32391L8.82152 7.64312L8.54994 7.44584L8.27842 7.64312L8.38213 7.32391L8.11058 7.12659H8.44623L8.54997 6.80737ZM10.45 6.80737L10.5537 7.12659H10.8894L10.6178 7.32391L10.7216 7.64312L10.45 7.44584L10.1784 7.64312L10.2822 7.32391L10.0106 7.12659H10.3463L10.45 6.80737Z" fill="white"/>
</g>
</g>
<defs>
<clipPath id="clip0_1_1225">
<rect width="20" height="15" fill="white"/>
</clipPath>
</defs>
</svg>
